<?xml version="1.0" encoding="UTF-8"?>
<svg xmlns="http://www.w3.org/2000/svg" xmlns:xlink="http://www.w3.org/1999/xlink" width="206.76" height="66.89" viewBox="0 0 206.76 66.89">
<defs>
<g>
<g id="glyph-0-0">
<path d="M 3.28125 1.71875 L 1.25 -2.703125 L 3.28125 -7.109375 L 2.78125 -7.109375 L 0.53125 -2.703125 L 2.78125 1.71875 Z M 3.28125 1.71875 "/>
</g>
<g id="glyph-0-1">
<path d="M 1.34375 1.71875 L 1.34375 -7.109375 L 0.75 -7.109375 L 0.75 1.71875 Z M 1.34375 1.71875 "/>
</g>
<g id="glyph-0-2">
<path d="M 7.28125 -1.03125 L 7.015625 -0.859375 C 6.734375 -0.671875 6.515625 -0.5625 6.40625 -0.5625 C 6.34375 -0.5625 6.28125 -0.640625 6.28125 -0.75 C 6.28125 -0.859375 6.296875 -0.953125 6.34375 -1.15625 L 7.09375 -4.109375 C 7.140625 -4.28125 7.171875 -4.453125 7.171875 -4.53125 C 7.171875 -4.6875 7.0625 -4.8125 6.90625 -4.8125 C 6.625 -4.8125 6.234375 -4.625 5.625 -4.203125 C 5 -3.75 4.65625 -3.40625 4.171875 -2.71875 L 4.46875 -4.078125 C 4.5 -4.28125 4.53125 -4.421875 4.53125 -4.5 C 4.53125 -4.6875 4.4375 -4.8125 4.28125 -4.8125 C 3.984375 -4.8125 3.515625 -4.578125 2.96875 -4.171875 C 2.53125 -3.828125 2.328125 -3.625 1.6875 -2.734375 L 2.015625 -4.0625 C 2.046875 -4.234375 2.078125 -4.375 2.078125 -4.5 C 2.078125 -4.6875 1.984375 -4.8125 1.84375 -4.8125 C 1.640625 -4.8125 1.25 -4.59375 0.515625 -4.0625 L 0.234375 -3.875 L 0.3125 -3.671875 C 0.671875 -3.890625 1.03125 -4.125 1.09375 -4.125 C 1.203125 -4.125 1.28125 -4.03125 1.28125 -3.875 C 1.28125 -3.375 0.875 -1.453125 0.453125 -0.015625 L 0.484375 0.09375 L 1.171875 -0.0625 L 1.390625 -1.078125 C 1.625 -2.1875 1.890625 -2.765625 2.4375 -3.375 C 2.859375 -3.828125 3.3125 -4.125 3.59375 -4.125 C 3.65625 -4.125 3.703125 -4.046875 3.703125 -3.921875 C 3.703125 -3.5625 3.484375 -2.4375 3.078125 -0.6875 L 2.90625 -0.015625 L 2.953125 0.09375 L 3.65625 -0.0625 L 3.859375 -1.125 C 4.015625 -1.9375 4.359375 -2.6875 4.796875 -3.171875 C 5.34375 -3.78125 5.84375 -4.125 6.15625 -4.125 C 6.234375 -4.125 6.296875 -4.03125 6.296875 -3.875 C 6.296875 -3.640625 6.265625 -3.5 6.046875 -2.625 C 5.640625 -1.046875 5.484375 -0.84375 5.484375 -0.3125 C 5.484375 -0.0625 5.59375 0.09375 5.78125 0.09375 C 6.046875 0.09375 6.40625 -0.125 7.375 -0.84375 Z M 7.28125 -1.03125 "/>
</g>
<g id="glyph-0-3">
<path d="M 3.28125 -2.703125 L 1.03125 -7.109375 L 0.53125 -7.109375 L 2.5625 -2.703125 L 0.53125 1.71875 L 1.03125 1.71875 Z M 3.28125 -2.703125 "/>
</g>
<g id="glyph-0-4">
<path d="M 0.234375 -3.875 L 0.3125 -3.671875 L 0.625 -3.875 C 1 -4.109375 1.03125 -4.125 1.09375 -4.125 C 1.203125 -4.125 1.28125 -4.03125 1.28125 -3.875 C 1.28125 -3.375 0.875 -1.453125 0.453125 -0.015625 L 0.53125 0.09375 C 0.78125 0.015625 1 -0.046875 1.21875 -0.078125 C 1.421875 -1.328125 1.625 -1.984375 2.078125 -2.671875 C 2.625 -3.515625 3.375 -4.125 3.8125 -4.125 C 3.921875 -4.125 3.984375 -4.03125 3.984375 -3.890625 C 3.984375 -3.703125 3.953125 -3.5 3.875 -3.1875 L 3.359375 -1.0625 C 3.265625 -0.703125 3.234375 -0.46875 3.234375 -0.3125 C 3.234375 -0.0625 3.34375 0.09375 3.53125 0.09375 C 3.78125 0.09375 4.140625 -0.125 5.125 -0.84375 L 5.03125 -1.03125 L 4.765625 -0.859375 C 4.46875 -0.671875 4.25 -0.5625 4.15625 -0.5625 C 4.09375 -0.5625 4.03125 -0.640625 4.03125 -0.75 C 4.03125 -0.8125 4.03125 -0.921875 4.046875 -0.953125 L 4.703125 -3.703125 C 4.78125 -4 4.8125 -4.28125 4.8125 -4.453125 C 4.8125 -4.671875 4.703125 -4.8125 4.5 -4.8125 C 4.09375 -4.8125 3.40625 -4.421875 2.8125 -3.875 C 2.4375 -3.53125 2.15625 -3.1875 1.640625 -2.46875 L 2.015625 -4.0625 C 2.046875 -4.25 2.078125 -4.359375 2.078125 -4.46875 C 2.078125 -4.6875 2 -4.8125 1.84375 -4.8125 C 1.640625 -4.8125 1.25 -4.578125 0.515625 -4.0625 Z M 0.234375 -3.875 "/>
</g>
<g id="glyph-0-5">
<path d="M 0.34375 -3.875 L 0.40625 -3.671875 L 0.734375 -3.875 C 1.09375 -4.109375 1.125 -4.125 1.203125 -4.125 C 1.296875 -4.125 1.375 -4.03125 1.375 -3.890625 C 1.375 -3.828125 1.328125 -3.59375 1.296875 -3.453125 L 0.640625 -1.0625 C 0.5625 -0.75 0.515625 -0.484375 0.515625 -0.296875 C 0.515625 -0.0625 0.625 0.09375 0.8125 0.09375 C 1.0625 0.09375 1.421875 -0.125 2.40625 -0.84375 L 2.296875 -1.03125 L 2.046875 -0.859375 C 1.75 -0.671875 1.53125 -0.5625 1.4375 -0.5625 C 1.359375 -0.5625 1.3125 -0.65625 1.3125 -0.75 C 1.3125 -0.859375 1.328125 -0.953125 1.375 -1.15625 L 2.140625 -4.1875 C 2.1875 -4.359375 2.203125 -4.46875 2.203125 -4.546875 C 2.203125 -4.71875 2.109375 -4.8125 1.953125 -4.8125 C 1.734375 -4.8125 1.359375 -4.59375 0.625 -4.0625 Z M 2.265625 -7.09375 C 1.984375 -7.09375 1.6875 -6.765625 1.6875 -6.4375 C 1.6875 -6.1875 1.84375 -6.015625 2.078125 -6.015625 C 2.390625 -6.015625 2.625 -6.3125 2.625 -6.6875 C 2.625 -6.921875 2.484375 -7.09375 2.265625 -7.09375 Z M 2.265625 -7.09375 "/>
</g>
<g id="glyph-0-6">
<path d="M 1.375 -3.5 L 0.375 1.4375 C 0.265625 1.953125 0.09375 2.296875 -0.09375 2.296875 C -0.234375 2.296875 -0.40625 2.25 -0.625 2.109375 L -0.703125 2.6875 C -0.59375 2.734375 -0.46875 2.75 -0.3125 2.75 C 0.078125 2.75 0.484375 2.328125 0.84375 1.515625 C 1.03125 1.0625 1.171875 0.5625 1.453125 -0.703125 L 2.21875 -4.1875 C 2.25 -4.359375 2.265625 -4.5 2.265625 -4.5625 C 2.265625 -4.71875 2.1875 -4.8125 2.03125 -4.8125 C 1.796875 -4.8125 1.4375 -4.59375 0.6875 -4.0625 L 0.40625 -3.875 L 0.484375 -3.671875 L 0.796875 -3.875 C 1.171875 -4.109375 1.203125 -4.125 1.265625 -4.125 C 1.359375 -4.125 1.453125 -4.03125 1.453125 -3.890625 C 1.453125 -3.8125 1.375 -3.546875 1.375 -3.5 Z M 2.28125 -7.09375 C 2 -7.09375 1.703125 -6.765625 1.703125 -6.4375 C 1.703125 -6.1875 1.859375 -6.015625 2.09375 -6.015625 C 2.40625 -6.015625 2.640625 -6.3125 2.640625 -6.6875 C 2.640625 -6.921875 2.5 -7.09375 2.28125 -7.09375 Z M 2.28125 -7.09375 "/>
</g>
<g id="glyph-1-0">
<path d="M 5.828125 0 L 5.828125 -0.46875 L 5.125 -0.46875 L 3.453125 -2.453125 L 4.609375 -3.75 C 4.75 -3.890625 4.8125 -3.953125 5.625 -3.953125 L 5.625 -4.421875 L 4.71875 -4.390625 L 3.6875 -4.421875 L 3.6875 -3.953125 C 3.828125 -3.953125 3.953125 -3.9375 4.0625 -3.875 C 4.03125 -3.8125 4.03125 -3.78125 3.984375 -3.75 L 3.15625 -2.8125 L 2.171875 -3.953125 L 2.578125 -3.953125 L 2.578125 -4.421875 L 1.359375 -4.390625 L 0.265625 -4.421875 L 0.265625 -3.953125 L 0.984375 -3.953125 L 2.53125 -2.125 L 1.21875 -0.65625 C 1.0625 -0.46875 0.703125 -0.46875 0.21875 -0.46875 L 0.21875 0 L 1.140625 -0.03125 L 2.15625 0 L 2.15625 -0.46875 C 1.984375 -0.46875 1.796875 -0.515625 1.796875 -0.578125 C 1.796875 -0.578125 1.796875 -0.59375 1.859375 -0.671875 L 2.828125 -1.765625 L 3.921875 -0.46875 L 3.53125 -0.46875 L 3.53125 0 L 4.734375 -0.03125 Z M 5.828125 0 "/>
</g>
<g id="glyph-2-0">
<path d="M 3.03125 0.015625 L 3.03125 -0.234375 L 2.65625 -0.265625 C 2.265625 -0.28125 2.1875 -0.359375 2.1875 -0.734375 L 2.1875 -5 L 2.078125 -5.046875 C 1.609375 -4.796875 1.09375 -4.578125 0.4375 -4.34375 L 0.484375 -3.984375 L 0.5625 -3.984375 L 1.515625 -4.421875 C 1.5625 -4.421875 1.578125 -4.359375 1.578125 -4.171875 L 1.578125 -0.734375 C 1.578125 -0.359375 1.5 -0.28125 1.109375 -0.265625 L 0.703125 -0.234375 L 0.703125 0.015625 C 1.8125 0 1.8125 0 1.890625 0 C 2.125 0 2.921875 0.015625 3.03125 0.015625 Z M 3.03125 0.015625 "/>
</g>
<g id="glyph-2-1">
<path d="M 0.109375 -0.4375 L 0.109375 0.015625 C 1.46875 0.015625 1.46875 0 1.734375 0 C 2 0 2 0.015625 3.40625 0.015625 C 3.40625 -0.125 3.390625 -0.203125 3.390625 -0.3125 C 3.390625 -0.40625 3.40625 -0.46875 3.40625 -0.625 C 2.5625 -0.59375 2.234375 -0.59375 0.890625 -0.5625 L 2.203125 -1.96875 C 2.90625 -2.703125 3.125 -3.109375 3.125 -3.65625 C 3.125 -4.484375 2.5625 -5 1.640625 -5 C 1.125 -5 0.765625 -4.859375 0.40625 -4.5 L 0.28125 -3.515625 L 0.609375 -3.515625 L 0.703125 -3.84375 C 0.8125 -4.265625 0.96875 -4.453125 1.453125 -4.453125 C 2.078125 -4.453125 2.484375 -4.046875 2.484375 -3.4375 C 2.484375 -2.890625 1.953125 -2.390625 1.125 -1.515625 Z M 0.109375 -0.4375 "/>
</g>
<g id="glyph-3-0">
<path d="M 1.875 -2.59375 C 1.875 -2.8125 1.640625 -2.96875 1.4375 -2.96875 C 1.203125 -2.96875 1.09375 -2.734375 1.03125 -2.546875 L 0.375 -0.640625 C 0.359375 -0.59375 0.3125 -0.46875 0.3125 -0.40625 C 0.3125 -0.359375 0.359375 -0.28125 0.40625 -0.28125 C 0.515625 -0.28125 0.609375 -0.40625 0.671875 -0.484375 L 1.6875 -2.125 C 1.78125 -2.25 1.875 -2.421875 1.875 -2.59375 Z M 1.875 -2.59375 "/>
</g>
</g>
</defs>
<path fill="none" stroke-width="0.79701" stroke-linecap="butt" stroke-linejoin="miter" stroke="rgb(0%, 0%, 0%)" stroke-opacity="1" stroke-miterlimit="10" d="M -56.695156 28.345375 L 56.695469 28.345375 " transform="matrix(1, 0, 0, -1, 100.66, 30.611)"/>
<g fill="rgb(0%, 0%, 0%)" fill-opacity="1">
<use xlink:href="#glyph-0-0" x="162.734" y="10.426"/>
</g>
<g fill="rgb(0%, 0%, 0%)" fill-opacity="1">
<use xlink:href="#glyph-1-0" x="166.53" y="10.431"/>
</g>
<g fill="rgb(0%, 0%, 0%)" fill-opacity="1">
<use xlink:href="#glyph-2-0" x="172.577" y="12.524"/>
</g>
<g fill="rgb(0%, 0%, 0%)" fill-opacity="1">
<use xlink:href="#glyph-1-0" x="176.704" y="10.431"/>
</g>
<g fill="rgb(0%, 0%, 0%)" fill-opacity="1">
<use xlink:href="#glyph-2-1" x="182.751" y="12.524"/>
</g>
<g fill="rgb(0%, 0%, 0%)" fill-opacity="1">
<use xlink:href="#glyph-0-1" x="186.879" y="10.426"/>
</g>
<g fill="rgb(0%, 0%, 0%)" fill-opacity="1">
<use xlink:href="#glyph-0-2" x="188.971" y="10.431"/>
</g>
<g fill="rgb(0%, 0%, 0%)" fill-opacity="1">
<use xlink:href="#glyph-0-3" x="196.712" y="10.426"/>
</g>
<path fill="none" stroke-width="0.3985" stroke-linecap="butt" stroke-linejoin="miter" stroke="rgb(0%, 0%, 0%)" stroke-opacity="1" stroke-dasharray="2.98883 2.98883" stroke-miterlimit="10" d="M 28.347813 22.677406 L 56.695469 22.677406 " transform="matrix(1, 0, 0, -1, 100.66, 30.611)"/>
<path fill="none" stroke-width="0.3985" stroke-linecap="butt" stroke-linejoin="miter" stroke="rgb(0%, 0%, 0%)" stroke-opacity="1" stroke-dasharray="2.98883 2.98883" stroke-miterlimit="10" d="M 28.347813 -22.678063 L 56.695469 -22.678063 " transform="matrix(1, 0, 0, -1, 100.66, 30.611)"/>
<g fill="rgb(0%, 0%, 0%)" fill-opacity="1">
<use xlink:href="#glyph-0-0" x="162.534" y="61.45"/>
</g>
<g fill="rgb(0%, 0%, 0%)" fill-opacity="1">
<use xlink:href="#glyph-1-0" x="166.33" y="61.455"/>
</g>
<g fill="rgb(0%, 0%, 0%)" fill-opacity="1">
<use xlink:href="#glyph-2-0" x="172.377" y="63.548"/>
</g>
<g fill="rgb(0%, 0%, 0%)" fill-opacity="1">
<use xlink:href="#glyph-3-0" x="176.006" y="61.395"/>
</g>
<g fill="rgb(73.599243%, 17.498779%, 46.798706%)" fill-opacity="1">
<use xlink:href="#glyph-1-0" x="179.178" y="61.455"/>
</g>
<g fill="rgb(73.599243%, 17.498779%, 46.798706%)" fill-opacity="1">
<use xlink:href="#glyph-2-1" x="185.225" y="63.548"/>
</g>
<g fill="rgb(73.599243%, 17.498779%, 46.798706%)" fill-opacity="1">
<use xlink:href="#glyph-3-0" x="188.855" y="61.395"/>
</g>
<g fill="rgb(0%, 0%, 0%)" fill-opacity="1">
<use xlink:href="#glyph-0-1" x="192.027" y="61.45"/>
</g>
<g fill="rgb(0%, 0%, 0%)" fill-opacity="1">
<use xlink:href="#glyph-0-4" x="194.119" y="61.455"/>
</g>
<g fill="rgb(0%, 0%, 0%)" fill-opacity="1">
<use xlink:href="#glyph-0-3" x="199.648" y="61.45"/>
</g>
<path fill="none" stroke-width="0.79701" stroke-linecap="butt" stroke-linejoin="miter" stroke="rgb(0%, 0%, 0%)" stroke-opacity="1" stroke-miterlimit="10" d="M -56.695156 -28.346031 L 56.695469 -28.346031 " transform="matrix(1, 0, 0, -1, 100.66, 30.611)"/>
<path fill="none" stroke-width="0.3985" stroke-linecap="butt" stroke-linejoin="miter" stroke="rgb(0%, 0%, 0%)" stroke-opacity="1" stroke-dasharray="2.98883 2.98883" stroke-miterlimit="10" d="M -56.695156 22.677406 L -28.3475 22.677406 " transform="matrix(1, 0, 0, -1, 100.66, 30.611)"/>
<path fill="none" stroke-width="0.3985" stroke-linecap="butt" stroke-linejoin="miter" stroke="rgb(0%, 0%, 0%)" stroke-opacity="1" stroke-dasharray="2.98883 2.98883" stroke-miterlimit="10" d="M -56.695156 -22.678063 L -28.3475 -22.678063 " transform="matrix(1, 0, 0, -1, 100.66, 30.611)"/>
<path fill="none" stroke-width="0.3985" stroke-linecap="butt" stroke-linejoin="miter" stroke="rgb(0%, 0%, 0%)" stroke-opacity="1" stroke-dasharray="2.98883 2.98883" stroke-miterlimit="10" d="M -28.3475 22.677406 L 28.347813 -22.678063 " transform="matrix(1, 0, 0, -1, 100.66, 30.611)"/>
<path fill="none" stroke-width="0.3985" stroke-linecap="butt" stroke-linejoin="miter" stroke="rgb(0%, 0%, 0%)" stroke-opacity="1" stroke-dasharray="2.98883 2.98883" stroke-miterlimit="10" d="M -28.3475 -22.678063 L 28.347813 22.677406 " transform="matrix(1, 0, 0, -1, 100.66, 30.611)"/>
<path fill="none" stroke-width="0.3985" stroke-linecap="butt" stroke-linejoin="miter" stroke="rgb(0%, 0%, 0%)" stroke-opacity="1" stroke-miterlimit="10" d="M 0.00015625 0.001625 L 0.00015625 0.001625 " transform="matrix(1, 0, 0, -1, 100.66, 30.611)"/>
<g fill="rgb(0%, 0%, 0%)" fill-opacity="1">
<use xlink:href="#glyph-0-0" x="4.98" y="10.426"/>
</g>
<g fill="rgb(0%, 0%, 0%)" fill-opacity="1">
<use xlink:href="#glyph-0-5" x="8.776" y="10.431"/>
</g>
<g fill="rgb(0%, 0%, 0%)" fill-opacity="1">
<use xlink:href="#glyph-0-1" x="11.535" y="10.426"/>
</g>
<g fill="rgb(0%, 0%, 0%)" fill-opacity="1">
<use xlink:href="#glyph-1-0" x="13.627" y="10.431"/>
</g>
<g fill="rgb(0%, 0%, 0%)" fill-opacity="1">
<use xlink:href="#glyph-2-0" x="19.675" y="12.524"/>
</g>
<g fill="rgb(73.599243%, 17.498779%, 46.798706%)" fill-opacity="1">
<use xlink:href="#glyph-1-0" x="23.802" y="10.431"/>
</g>
<g fill="rgb(73.599243%, 17.498779%, 46.798706%)" fill-opacity="1">
<use xlink:href="#glyph-2-1" x="29.849" y="12.524"/>
</g>
<g fill="rgb(73.599243%, 17.498779%, 46.798706%)" fill-opacity="1">
<use xlink:href="#glyph-3-0" x="33.478" y="10.371"/>
</g>
<g fill="rgb(0%, 0%, 0%)" fill-opacity="1">
<use xlink:href="#glyph-0-3" x="36.65" y="10.426"/>
</g>
<g fill="rgb(0%, 0%, 0%)" fill-opacity="1">
<use xlink:href="#glyph-0-0" x="4.98" y="55.463"/>
</g>
<g fill="rgb(0%, 0%, 0%)" fill-opacity="1">
<use xlink:href="#glyph-0-6" x="8.776" y="55.468"/>
</g>
<g fill="rgb(0%, 0%, 0%)" fill-opacity="1">
<use xlink:href="#glyph-0-1" x="11.535" y="55.463"/>
</g>
<g fill="rgb(0%, 0%, 0%)" fill-opacity="1">
<use xlink:href="#glyph-1-0" x="13.627" y="55.468"/>
</g>
<g fill="rgb(0%, 0%, 0%)" fill-opacity="1">
<use xlink:href="#glyph-2-0" x="19.675" y="57.561"/>
</g>
<g fill="rgb(0%, 0%, 0%)" fill-opacity="1">
<use xlink:href="#glyph-3-0" x="23.304" y="55.408"/>
</g>
<g fill="rgb(0%, 0%, 0%)" fill-opacity="1">
<use xlink:href="#glyph-1-0" x="26.476" y="55.468"/>
</g>
<g fill="rgb(0%, 0%, 0%)" fill-opacity="1">
<use xlink:href="#glyph-2-1" x="32.523" y="57.561"/>
</g>
<g fill="rgb(0%, 0%, 0%)" fill-opacity="1">
<use xlink:href="#glyph-0-3" x="36.65" y="55.463"/>
</g>
</svg>
